Plot

Two college students share a ride home for the holidays. When they break down on a deserted stretch
of road theyre preyed upon by the ghosts of people who have died there.

Cast

Emily Blunt ... Girl
Ashton Holmes ... Guy
Martin Donovan ... Highway Patrolman
Ned Bellamy ... Snowplow Driver
Ian A. Wallace ... Priest
Donny James Lucas ... Stranger
Chelan Simmons ... Blonde Girl
Darren Moore ... Clerk
Linden Banks ... Proctor
 
http://www.imdb.com/title/tt0486051/

General
Complete name : Wind Chill 2007 DVDRip Xvid BigPerm LKRG\WC_LKRG.avi
Format : AVI
Format/Info : Audio Video Interleave
File size : 728 MiB
Duration : 1h 30mn
Overall bit rate : 1 122 Kbps

Video
ID : 0
Format : MPEG-4 Visual
Format profile : Advanced Simple@L5
Format settings, BVOP : Yes
Format settings, QPel : No
Format settings, GMC : No warppoints
Format settings, Matrix : Default (H.263)
Codec ID : XVID
Codec ID/Hint : XviD
Duration : 1h 30mn
Bit rate : 669 Kbps
Width : 704 pixels
Height : 396 pixels
Display aspect ratio : 16:9
Frame rate : 23.976 fps
Color space : YUV
Chroma subsampling : 4:2:0
Bit depth : 8 bits
Scan type : Progressive
Compression mode : Lossy
Bits/(Pixel*Frame) : 0.100
Stream size : 434 MiB (60%)
Writing library : XviD 1.2.1 (UTC 2008-12-04)

Audio
ID : 1
Format : AC-3
Format/Info : Audio Coding 3
Mode extension : CM (complete main)
Codec ID : 2000
Duration : 1h 30mn
Bit rate mode : Constant
Bit rate : 448 Kbps
Channel(s) : 6 channels
Channel positions : Front: L C R, Side: L R, LFE
Sampling rate : 48.0 KHz
Bit depth : 16 bits
Compression mode : Lossy
Video delay : 42ms
Stream size : 291 MiB (40%)
Alignment : Split accross interleaves
Interleave, duration : 500 ms (11.99 video frames)
Interleave, preload duration : 500 ms
 
http://www.grinshare.com/img/XJ09SI.png
 
http://www.grinshare.com/img/1TM4LK.png
 
http://www.grinshare.com/img/VPN3LL.png
 
http://www.grinshare.com/img/HDMUMY.png

